<svg width="53" height="32" viewBox="0 0 53 32" fill="none" xmlns="http://www.w3.org/2000/svg">
<path d="M23.6719 28.8284C22.2657 29.7867 21.0678 30.4742 20.0782 30.8909C19.0886 31.3075 18.2501 31.5159 17.5626 31.5159C17.2813 31.5159 16.9896 31.469 16.6876 31.3752C16.3959 31.2919 16.1146 31.1461 15.8438 30.9377C15.573 30.719 15.323 30.4325 15.0938 30.0784C14.8751 29.7138 14.7032 29.2555 14.5782 28.7034C14.0678 29.0784 13.5001 29.4482 12.8751 29.8127C12.2605 30.1773 11.6251 30.5055 10.9688 30.7971C10.3126 31.0888 9.6511 31.3232 8.98444 31.5002C8.32819 31.6773 7.69798 31.7659 7.09381 31.7659C6.07298 31.7659 5.15631 31.5575 4.34381 31.1409C3.53131 30.7346 2.8386 30.193 2.26569 29.5159C1.70319 28.8388 1.26569 28.068 0.953186 27.2034C0.651103 26.3388 0.500061 25.4482 0.500061 24.5315C0.500061 23.5107 0.656311 22.5992 0.968811 21.7971C1.29173 20.9846 1.72402 20.2659 2.26569 19.6409C2.81777 19.0055 3.45319 18.4482 4.17194 17.969C4.89069 17.4794 5.65631 17.0523 6.46881 16.6877C7.28131 16.3232 8.11464 16.0055 8.96881 15.7346C9.82298 15.4534 10.6511 15.1982 11.4532 14.969C11.5261 14.9586 11.6146 14.9482 11.7188 14.9377C11.8021 14.9273 11.9011 14.9221 12.0157 14.9221C12.1407 14.9117 12.2813 14.9065 12.4376 14.9065C12.7292 14.9065 13.0574 14.9273 13.4219 14.969C13.7969 15.0002 14.1928 15.0627 14.6094 15.1565L14.9376 5.29712C14.9167 4.7242 14.8126 4.23462 14.6251 3.82837C14.5417 3.6617 14.4376 3.50545 14.3126 3.35962C14.1876 3.20337 14.0313 3.08358 13.8438 3.00024C13.6667 2.91691 13.448 2.87004 13.1876 2.85962C12.9376 2.8492 12.6459 2.89608 12.3126 3.00024C12.7188 2.81274 13.1511 2.60441 13.6094 2.37524C14.0678 2.13566 14.5209 1.91691 14.9688 1.71899C15.4271 1.51066 15.8699 1.33879 16.2969 1.20337C16.7344 1.05754 17.1355 0.984619 17.5001 0.984619C17.8959 0.984619 18.224 1.08879 18.4844 1.29712C18.7553 1.50545 18.9063 1.82837 18.9376 2.26587C18.9688 2.55754 18.9844 2.95858 18.9844 3.46899C18.9949 3.97941 19.0001 4.58879 19.0001 5.29712C19.0001 6.14087 18.9896 7.08358 18.9688 8.12524C18.9584 9.15649 18.9428 10.2346 18.9219 11.3596C18.9011 12.4846 18.8751 13.6305 18.8438 14.7971C18.8126 15.9638 18.7865 17.1044 18.7657 18.219C18.7449 19.3336 18.724 20.3961 18.7032 21.4065C18.6928 22.4065 18.6876 23.3023 18.6876 24.094C18.6876 24.719 18.724 25.3336 18.7969 25.9377C18.8803 26.5419 19.0365 27.0836 19.2657 27.5627C19.5053 28.0419 19.8334 28.4325 20.2501 28.7346C20.6771 29.0263 21.2396 29.1721 21.9376 29.1721C22.198 29.1721 22.4688 29.1461 22.7501 29.094C23.0417 29.0419 23.349 28.9534 23.6719 28.8284ZM14.5157 18.5784C14.1511 18.2659 13.7605 18.0055 13.3438 17.7971C12.9271 17.5888 12.4949 17.4221 12.0469 17.2971C11.6094 17.1617 11.1667 17.068 10.7188 17.0159C10.2813 16.9534 9.85423 16.9221 9.43756 16.9221C8.53131 16.9221 7.75527 17.0575 7.10944 17.3284C6.47402 17.5992 5.95319 17.9846 5.54694 18.4846C5.14069 18.9846 4.84381 19.5836 4.65631 20.2815C4.46881 20.9794 4.37506 21.7555 4.37506 22.6096C4.37506 23.5263 4.51569 24.3961 4.79694 25.219C5.0886 26.0315 5.49485 26.7502 6.01569 27.3752C6.53652 27.9898 7.16673 28.4794 7.90631 28.844C8.65631 29.1982 9.48444 29.3752 10.3907 29.3752C11.0365 29.3752 11.5886 29.2971 12.0469 29.1409C12.5053 28.9742 12.8855 28.7502 13.1876 28.469C13.5001 28.1773 13.7501 27.8284 13.9376 27.4221C14.1251 27.0159 14.2761 26.568 14.3907 26.0784C14.3907 25.6721 14.3907 25.1982 14.3907 24.6565C14.4011 24.1044 14.4115 23.5107 14.4219 22.8752C14.4428 22.2294 14.4584 21.5471 14.4688 20.8284C14.4792 20.0992 14.4949 19.3492 14.5157 18.5784ZM29.6876 29.2659L25.9376 31.9534C25.9792 29.245 26.0209 26.8127 26.0626 24.6565C26.1042 22.5002 26.1355 20.5836 26.1563 18.9065C26.1876 17.219 26.2136 15.7555 26.2344 14.5159C26.2553 13.2763 26.2709 12.2138 26.2813 11.3284C26.3126 9.25545 26.3282 7.80233 26.3282 6.96899C26.3594 5.69816 26.1771 4.70858 25.7813 4.00024C25.3959 3.29191 24.7969 2.93774 23.9844 2.93774C23.724 2.93774 23.4532 2.9742 23.1719 3.04712C22.8803 3.10962 22.5782 3.2242 22.2657 3.39087C22.6719 3.0992 23.099 2.80233 23.5469 2.50024C23.9949 2.18774 24.448 1.90649 24.9063 1.65649C25.3751 1.40649 25.8438 1.20337 26.3126 1.04712C26.7917 0.880452 27.2657 0.797119 27.7344 0.797119C28.1511 0.797119 28.5053 0.875244 28.7969 1.03149C29.0886 1.18774 29.3282 1.39608 29.5157 1.65649C29.7136 1.90649 29.8646 2.19816 29.9688 2.53149C30.073 2.85441 30.1459 3.19295 30.1876 3.54712C30.2396 3.90129 30.2709 4.25545 30.2813 4.60962C30.2917 4.96379 30.2969 5.29191 30.2969 5.59399L29.9376 18.969C30.5001 18.3336 31.1355 17.745 31.8438 17.2034C32.5626 16.6513 33.3074 16.1825 34.0782 15.7971C34.849 15.4117 35.6199 15.1252 36.3907 14.9377C37.1719 14.7502 37.9011 14.6982 38.5782 14.7815C38.9844 14.8336 39.3646 14.9534 39.7188 15.1409C40.073 15.318 40.3803 15.5575 40.6407 15.8596C40.9011 16.1513 41.1042 16.495 41.2501 16.8909C41.4063 17.2763 41.4844 17.693 41.4844 18.1409C41.4844 18.8805 41.3126 19.5419 40.9688 20.1252C40.6251 20.7086 40.1824 21.219 39.6407 21.6565C39.1094 22.094 38.5157 22.4586 37.8594 22.7502C37.2136 23.0315 36.5886 23.245 35.9844 23.3909C36.2657 23.693 36.5938 24.0471 36.9688 24.4534C37.3542 24.8596 37.7657 25.2815 38.2032 25.719C38.6407 26.1461 39.099 26.5732 39.5782 27.0002C40.0574 27.4169 40.5365 27.7919 41.0157 28.1252C41.5053 28.4586 41.9844 28.7294 42.4532 28.9377C42.9219 29.1357 43.3699 29.2346 43.7969 29.2346C44.6303 29.2346 45.474 28.969 46.3282 28.4377C45.5782 28.969 44.9167 29.4482 44.3438 29.8752C43.7813 30.2919 43.2501 30.6409 42.7501 30.9221C42.2605 31.2034 41.7709 31.4117 41.2813 31.5471C40.7917 31.6825 40.2449 31.7242 39.6407 31.6721C39.0261 31.6305 38.4271 31.4273 37.8438 31.0627C37.2709 30.7086 36.7188 30.2867 36.1876 29.7971C35.6563 29.3075 35.1459 28.7867 34.6563 28.2346C34.1667 27.6825 33.7032 27.1877 33.2657 26.7502C33.0782 26.5315 32.8699 26.3284 32.6407 26.1409C32.4428 25.9846 32.2032 25.8284 31.9219 25.6721C31.6511 25.5159 31.3438 25.4065 31.0001 25.344C31.3646 25.0419 31.7292 24.7763 32.0938 24.5471C32.4688 24.3075 32.8074 24.0992 33.1094 23.9221C33.4636 23.7242 33.8126 23.5471 34.1563 23.3909C34.5105 23.2346 34.8803 23.0523 35.2657 22.844C35.6615 22.6357 36.0209 22.3961 36.3438 22.1252C36.6771 21.844 36.948 21.5263 37.1563 21.1721C37.3751 20.8075 37.4844 20.3909 37.4844 19.9221C37.4844 19.5367 37.4167 19.1617 37.2813 18.7971C37.1563 18.4221 36.974 18.094 36.7344 17.8127C36.4949 17.5211 36.2084 17.2919 35.8751 17.1252C35.5521 16.9482 35.1928 16.8596 34.7969 16.8596C34.4011 16.8596 34.0209 16.9221 33.6563 17.0471C33.2917 17.1721 32.9896 17.3023 32.7501 17.4377C32.5417 17.5523 32.2709 17.8805 31.9376 18.4221C31.6146 18.9638 31.2917 19.7242 30.9688 20.7034C30.6459 21.6825 30.3594 22.8857 30.1094 24.3127C29.8699 25.7398 29.7292 27.3909 29.6876 29.2659ZM46.3282 28.4377L46.4844 28.3127L46.3282 28.4377ZM52.6876 29.2034C52.2813 29.495 51.8855 29.7763 51.5001 30.0471C51.1146 30.318 50.7501 30.5627 50.4063 30.7815C50.073 30.9898 49.7709 31.1565 49.5001 31.2815C49.2396 31.4169 49.0313 31.4846 48.8751 31.4846C48.7501 31.4638 48.573 31.3961 48.3438 31.2815C48.1459 31.1773 47.8855 31.0159 47.5626 30.7971C47.2501 30.568 46.8594 30.2398 46.3907 29.8127L49.4532 27.6721C49.9428 28.0784 50.3855 28.3909 50.7813 28.6096C51.1771 28.818 51.5157 28.9638 51.7969 29.0471C52.1303 29.1617 52.4271 29.2138 52.6876 29.2034Z" fill="#141414"/>
</svg>
